<svg width="462" height="42" fill="none" xmlns="http://www.w3.org/2000/svg"><mask id="a" maskUnits="userSpaceOnUse" x="0" y="0" width="462" height="42" fill="#000"><path fill="#fff" d="M0 0h462v42H0z"/><path d="M459.148 20.72c0 1.056-.32 2.032-.96 2.928h-7.872c.256-.192.384-.512.384-.96 0-.448-.256-.8-.768-1.056-.512-.288-1.168-.432-1.968-.432-2.4 0-3.6.736-3.6 2.208 0 .576.448.992 1.344 1.248.896.256 1.984.464 3.264.624 1.28.16 2.56.4 3.84.72 1.28.288 2.368.88 3.264 1.776.896.896 1.344 2.096 1.344 3.6 0 2.656-1.072 4.672-3.216 6.048-2.112 1.376-5.2 2.064-9.264 2.064-4.064 0-6.912-.656-8.544-1.968-1.28-1.024-1.92-2.432-1.92-4.224 0-.512.048-1.04.144-1.584l8.016-.096c-.064.448.192.848.768 1.2.608.32 1.488.48 2.64.48 1.152 0 1.984-.112 2.496-.336.512-.256.768-.72.768-1.392 0-.448-.448-.752-1.344-.912-.896-.192-2-.352-3.312-.48a33.827 33.827 0 01-3.888-.624 6.387 6.387 0 01-3.264-1.824c-.896-.928-1.344-2.144-1.344-3.648 0-2.912 1.12-5.152 3.36-6.72 2.272-1.568 5.536-2.352 9.792-2.352 6.56 0 9.84 1.904 9.84 5.712zm-40.072 18.768c-3.712 0-6.384-.832-8.016-2.496-1.216-1.216-1.824-2.848-1.824-4.896 0-.672.064-1.392.192-2.16l3.264-18.576 8.784-3.648-1.392 8.016h13.248l-1.2 6.768h-13.248l-.96 5.424a8.012 8.012 0 00-.192 1.632c0 2.016.96 3.024 2.88 3.024 1.024 0 1.872-.432 2.544-1.296.704-.864 1.184-2.016 1.44-3.456h7.968c-1.344 7.776-5.84 11.664-13.488 11.664zM395.573 24.08c0-1.376-.672-2.064-2.016-2.064-1.312 0-2.4.496-3.264 1.488l-2.688 15.312h-8.16l4.08-23.088h7.584l-.528 2.832c1.888-2.336 4.272-3.504 7.152-3.504s4.751.704 5.616 2.112c.544.896.816 1.92.816 3.072 0 1.152-.08 2.224-.24 3.216l-1.296 7.392a3.125 3.125 0 00-.048.528c0 .864.48 1.296 1.44 1.296.736 0 1.392-.16 1.968-.48l-.24 5.424c-1.504 1.248-3.216 1.872-5.136 1.872-4.352 0-6.528-1.824-6.528-5.472 0-.64.064-1.328.192-2.064l1.152-6.384a9.244 9.244 0 00.144-1.488zm-21.82 7.344c0 .832.416 1.248 1.248 1.248.865 0 1.585-.16 2.16-.48l-.24 5.424c-1.536 1.248-3.263 1.872-5.184 1.872-3.52 0-5.471-1.28-5.855-3.84-1.601 2.56-3.952 3.84-7.056 3.84-5.248 0-7.873-2.256-7.873-6.768 0-.768.08-1.616.24-2.544l1.008-5.616c.512-2.88 1.68-5.168 3.504-6.864 1.856-1.728 4.256-2.592 7.2-2.592 2.977 0 4.992.688 6.048 2.064l.24-1.44h7.297l-2.689 15.12a3.498 3.498 0 00-.048.576zm-14.208-2.304c-.064.288-.096.688-.096 1.2s.24 1.024.72 1.536c.481.48 1.28.72 2.4.72 1.152 0 2.145-.448 2.977-1.344l1.439-8.064c-.352-.8-1.184-1.2-2.496-1.2-2.464 0-3.903 1.184-4.32 3.552l-.624 3.6zm-14.704 2.304c0 .832.416 1.248 1.248 1.248.864 0 1.584-.16 2.16-.48l-.24 5.424c-1.536 1.248-3.264 1.872-5.184 1.872-2.912 0-4.8-.672-5.664-2.016a5.212 5.212 0 01-.816-2.832c0-1.024.064-1.92.192-2.688l5.232-29.568h8.16l-5.04 28.464a3.498 3.498 0 00-.048.576zm-23.457-3.12h-5.712L313.8 38.816h-8.64l6.096-34.56h14.64c3.616 0 6.192.832 7.728 2.496 1.12 1.28 1.68 2.912 1.68 4.896 0 .672-.064 1.376-.192 2.112l-.96 5.424c-.48 2.656-1.888 4.848-4.224 6.576-2.336 1.696-5.184 2.544-8.544 2.544zm1.488-16.56h-4.32l-1.584 9.072h4.272c2.624 0 4.144-1.168 4.56-3.504l.336-1.968c.064-.288.096-.672.096-1.152 0-.48-.24-1.008-.72-1.584-.48-.576-1.36-.864-2.64-.864zm-36.4 19.68c0 .832.416 1.248 1.248 1.248.864 0 1.584-.16 2.16-.48l-.24 5.424c-1.536 1.248-3.264 1.872-5.184 1.872-3.52 0-5.472-1.28-5.856-3.84-1.6 2.56-3.952 3.84-7.056 3.84-5.248 0-7.872-2.256-7.872-6.768 0-.768.08-1.616.24-2.544l1.008-5.616c.512-2.88 1.68-5.168 3.504-6.864 1.856-1.728 4.416-2.592 7.68-2.592 2.016 0 3.616.432 4.8 1.296l2.448-14.016h8.208l-5.04 28.464a3.498 3.498 0 00-.048.576zm-14.208-2.304c-.064.288-.096.688-.096 1.2s.24 1.024.72 1.536c.48.48 1.28.72 2.4.72 1.152 0 2.144-.448 2.976-1.344l1.44-8.064c-.352-.8-1.184-1.2-2.496-1.2-2.464 0-3.904 1.184-4.32 3.552l-.624 3.6zm-21.535-5.04c0-1.376-.672-2.064-2.016-2.064-1.312 0-2.4.496-3.264 1.488l-2.688 15.312h-8.16l4.08-23.088h7.584l-.528 2.832c1.888-2.336 4.272-3.504 7.152-3.504s4.752.704 5.616 2.112c.544.896.816 1.92.816 3.072 0 1.152-.08 2.224-.24 3.216l-1.296 7.392a3.232 3.232 0 00-.048.528c0 .864.48 1.296 1.44 1.296.736 0 1.392-.16 1.968-.48l-.24 5.424c-1.504 1.248-3.216 1.872-5.136 1.872-4.352 0-6.528-1.824-6.528-5.472 0-.64.064-1.328.192-2.064l1.152-6.384a9.244 9.244 0 00.144-1.488zm-21.819 7.344c0 .832.416 1.248 1.248 1.248.864 0 1.584-.16 2.16-.48l-.24 5.424c-1.536 1.248-3.264 1.872-5.184 1.872-3.52 0-5.472-1.28-5.856-3.84-1.6 2.56-3.952 3.84-7.056 3.84-5.248 0-7.872-2.256-7.872-6.768 0-.768.08-1.616.24-2.544l1.008-5.616c.512-2.88 1.68-5.168 3.504-6.864 1.856-1.728 4.256-2.592 7.2-2.592 2.976 0 4.992.688 6.048 2.064l.24-1.44h7.296l-2.688 15.12a3.498 3.498 0 00-.048.576zm-14.208-2.304c-.064.288-.096.688-.096 1.2s.24 1.024.72 1.536c.48.48 1.28.72 2.4.72 1.152 0 2.144-.448 2.976-1.344l1.44-8.064c-.352-.8-1.184-1.2-2.496-1.2-2.464 0-3.904 1.184-4.32 3.552l-.624 3.6zm-22.179-8.4c0 1.056-.32 2.032-.96 2.928h-7.872c.256-.192.384-.512.384-.96 0-.448-.256-.8-.768-1.056-.512-.288-1.168-.432-1.968-.432-2.4 0-3.6.736-3.6 2.208 0 .576.448.992 1.344 1.248.896.256 1.984.464 3.264.624 1.28.16 2.56.4 3.84.72 1.28.288 2.368.88 3.264 1.776.896.896 1.344 2.096 1.344 3.6 0 2.656-1.072 4.672-3.216 6.048-2.112 1.376-5.2 2.064-9.264 2.064-4.064 0-6.912-.656-8.544-1.968-1.28-1.024-1.92-2.432-1.92-4.224 0-.512.048-1.04.144-1.584l8.016-.096c-.064.448.192.848.768 1.2.608.32 1.488.48 2.64.48 1.152 0 1.984-.112 2.496-.336.512-.256.768-.72.768-1.392 0-.448-.448-.752-1.344-.912-.896-.192-2-.352-3.312-.48a33.827 33.827 0 01-3.888-.624 6.387 6.387 0 01-3.264-1.824c-.896-.928-1.344-2.144-1.344-3.648 0-2.912 1.12-5.152 3.36-6.72 2.272-1.568 5.536-2.352 9.792-2.352 6.56 0 9.84 1.904 9.84 5.712zm-30.4 10.704c0 .832.416 1.248 1.248 1.248.864 0 1.584-.16 2.16-.48l-.24 5.424c-1.536 1.248-3.264 1.872-5.184 1.872-2.912 0-4.8-.672-5.664-2.016a5.212 5.212 0 01-.816-2.832c0-1.024.064-1.92.192-2.688l5.232-29.568h8.16l-5.04 28.464a3.498 3.498 0 00-.048.576zm-15.291 0c0 .832.416 1.248 1.248 1.248.864 0 1.584-.16 2.16-.48l-.24 5.424c-1.536 1.248-3.264 1.872-5.184 1.872-3.52 0-5.472-1.28-5.856-3.84-1.6 2.56-3.952 3.84-7.056 3.84-5.248 0-7.872-2.256-7.872-6.768 0-.768.08-1.616.24-2.544l1.008-5.616c.512-2.88 1.68-5.168 3.504-6.864 1.856-1.728 4.256-2.592 7.2-2.592 2.976 0 4.992.688 6.048 2.064l.24-1.44h7.296l-2.688 15.12a3.498 3.498 0 00-.048.576zm-14.208-2.304c-.064.288-.096.688-.096 1.2s.24 1.024.72 1.536c.48.48 1.28.72 2.4.72 1.152 0 2.144-.448 2.976-1.344l1.44-8.064c-.352-.8-1.184-1.2-2.496-1.2-2.464 0-3.904 1.184-4.32 3.552l-.624 3.6zm-13.092 3.552c.736 0 1.392-.16 1.968-.48l-.24 5.424c-1.504 1.248-3.216 1.872-5.136 1.872-4.352 0-6.528-1.824-6.528-5.472 0-.64.064-1.328.192-2.064l1.008-5.904c.096-.576.144-1.152.144-1.728 0-1.536-.848-2.304-2.544-2.304-1.664 0-2.976.656-3.936 1.968l-2.592 14.832h-8.16l2.256-12.768c.096-.576.144-1.152.144-1.728 0-1.536-.864-2.304-2.592-2.304-1.376 0-2.56.528-3.552 1.584l-2.688 15.216h-8.16l4.08-23.088h7.584l-.528 2.88c1.92-2.368 4.352-3.552 7.296-3.552 4.16 0 6.528 1.376 7.104 4.128 1.92-2.752 4.48-4.128 7.68-4.128 3.232 0 5.328.72 6.288 2.16a5.9 5.9 0 01.96 3.264c0 1.184-.08 2.256-.24 3.216l-1.2 7.152a3.232 3.232 0 00-.048.528c0 .864.48 1.296 1.44 1.296zm-44.662 0c.736 0 1.391-.16 1.968-.48l-.24 5.424c-1.504 1.248-3.216 1.872-5.136 1.872-2.913 0-4.8-.672-5.665-2.016-.575-.896-.864-1.84-.864-2.832 0-1.024.064-1.92.192-2.688l2.88-16.224h8.16l-2.688 15.12a3.232 3.232 0 00-.047.528c0 .864.48 1.296 1.44 1.296zM68.966 7.904c0-2.048.448-3.536 1.344-4.464.927-.96 2.352-1.44 4.272-1.44 2.688 0 4.032 1.184 4.032 3.552 0 2.016-.465 3.488-1.392 4.416-.896.928-2.32 1.392-4.272 1.392-2.657 0-3.984-1.152-3.984-3.456zM51.51 24.08c0-1.376-.672-2.064-2.016-2.064-1.312 0-2.4.496-3.264 1.488l-2.688 15.312h-8.16l4.08-23.088h7.584l-.528 2.832c1.888-2.336 4.272-3.504 7.152-3.504s4.752.704 5.616 2.112c.544.896.816 1.92.816 3.072 0 1.152-.08 2.224-.24 3.216l-1.296 7.392a3.232 3.232 0 00-.048.528c0 .864.48 1.296 1.44 1.296.736 0 1.392-.16 1.968-.48l-.24 5.424c-1.504 1.248-3.216 1.872-5.136 1.872-4.352 0-6.528-1.824-6.528-5.472 0-.64.064-1.328.192-2.064l1.152-6.384a9.244 9.244 0 00.144-1.488zM22.248 38.816l.288-7.536H14.52l-2.352 7.536H3l12.336-34.56h15.84l.192 34.56h-9.12zm-1.968-26.16l-3.792 12.192h6.288l.528-12.192H20.28z"/></mask><path d="M459.148 20.72c0 1.056-.32 2.032-.96 2.928h-7.872c.256-.192.384-.512.384-.96 0-.448-.256-.8-.768-1.056-.512-.288-1.168-.432-1.968-.432-2.4 0-3.6.736-3.6 2.208 0 .576.448.992 1.344 1.248.896.256 1.984.464 3.264.624 1.28.16 2.56.4 3.84.72 1.28.288 2.368.88 3.264 1.776.896.896 1.344 2.096 1.344 3.6 0 2.656-1.072 4.672-3.216 6.048-2.112 1.376-5.2 2.064-9.264 2.064-4.064 0-6.912-.656-8.544-1.968-1.28-1.024-1.92-2.432-1.92-4.224 0-.512.048-1.04.144-1.584l8.016-.096c-.064.448.192.848.768 1.2.608.32 1.488.48 2.64.48 1.152 0 1.984-.112 2.496-.336.512-.256.768-.72.768-1.392 0-.448-.448-.752-1.344-.912-.896-.192-2-.352-3.312-.48a33.827 33.827 0 01-3.888-.624 6.387 6.387 0 01-3.264-1.824c-.896-.928-1.344-2.144-1.344-3.648 0-2.912 1.12-5.152 3.36-6.72 2.272-1.568 5.536-2.352 9.792-2.352 6.56 0 9.84 1.904 9.84 5.712zm-40.072 18.768c-3.712 0-6.384-.832-8.016-2.496-1.216-1.216-1.824-2.848-1.824-4.896 0-.672.064-1.392.192-2.16l3.264-18.576 8.784-3.648-1.392 8.016h13.248l-1.2 6.768h-13.248l-.96 5.424a8.012 8.012 0 00-.192 1.632c0 2.016.96 3.024 2.88 3.024 1.024 0 1.872-.432 2.544-1.296.704-.864 1.184-2.016 1.44-3.456h7.968c-1.344 7.776-5.84 11.664-13.488 11.664zM395.573 24.08c0-1.376-.672-2.064-2.016-2.064-1.312 0-2.4.496-3.264 1.488l-2.688 15.312h-8.16l4.08-23.088h7.584l-.528 2.832c1.888-2.336 4.272-3.504 7.152-3.504s4.751.704 5.616 2.112c.544.896.816 1.92.816 3.072 0 1.152-.08 2.224-.24 3.216l-1.296 7.392a3.125 3.125 0 00-.048.528c0 .864.48 1.296 1.44 1.296.736 0 1.392-.16 1.968-.48l-.24 5.424c-1.504 1.248-3.216 1.872-5.136 1.872-4.352 0-6.528-1.824-6.528-5.472 0-.64.064-1.328.192-2.064l1.152-6.384a9.244 9.244 0 00.144-1.488zm-21.82 7.344c0 .832.416 1.248 1.248 1.248.865 0 1.585-.16 2.16-.48l-.24 5.424c-1.536 1.248-3.263 1.872-5.184 1.872-3.52 0-5.471-1.28-5.855-3.84-1.601 2.56-3.952 3.84-7.056 3.84-5.248 0-7.873-2.256-7.873-6.768 0-.768.08-1.616.24-2.544l1.008-5.616c.512-2.88 1.68-5.168 3.504-6.864 1.856-1.728 4.256-2.592 7.2-2.592 2.977 0 4.992.688 6.048 2.064l.24-1.44h7.297l-2.689 15.12a3.498 3.498 0 00-.048.576zm-14.208-2.304c-.064.288-.096.688-.096 1.2s.24 1.024.72 1.536c.481.48 1.28.72 2.4.72 1.152 0 2.145-.448 2.977-1.344l1.439-8.064c-.352-.8-1.184-1.2-2.496-1.2-2.464 0-3.903 1.184-4.32 3.552l-.624 3.6zm-14.704 2.304c0 .832.416 1.248 1.248 1.248.864 0 1.584-.16 2.16-.48l-.24 5.424c-1.536 1.248-3.264 1.872-5.184 1.872-2.912 0-4.8-.672-5.664-2.016a5.212 5.212 0 01-.816-2.832c0-1.024.064-1.92.192-2.688l5.232-29.568h8.16l-5.04 28.464a3.498 3.498 0 00-.048.576zm-23.457-3.12h-5.712L313.8 38.816h-8.64l6.096-34.56h14.64c3.616 0 6.192.832 7.728 2.496 1.12 1.28 1.68 2.912 1.68 4.896 0 .672-.064 1.376-.192 2.112l-.96 5.424c-.48 2.656-1.888 4.848-4.224 6.576-2.336 1.696-5.184 2.544-8.544 2.544zm1.488-16.56h-4.32l-1.584 9.072h4.272c2.624 0 4.144-1.168 4.56-3.504l.336-1.968c.064-.288.096-.672.096-1.152 0-.48-.24-1.008-.72-1.584-.48-.576-1.36-.864-2.64-.864zm-36.4 19.68c0 .832.416 1.248 1.248 1.248.864 0 1.584-.16 2.16-.48l-.24 5.424c-1.536 1.248-3.264 1.872-5.184 1.872-3.52 0-5.472-1.28-5.856-3.84-1.6 2.56-3.952 3.84-7.056 3.84-5.248 0-7.872-2.256-7.872-6.768 0-.768.08-1.616.24-2.544l1.008-5.616c.512-2.88 1.68-5.168 3.504-6.864 1.856-1.728 4.416-2.592 7.68-2.592 2.016 0 3.616.432 4.8 1.296l2.448-14.016h8.208l-5.04 28.464a3.498 3.498 0 00-.048.576zm-14.208-2.304c-.064.288-.096.688-.096 1.2s.24 1.024.72 1.536c.48.48 1.28.72 2.4.72 1.152 0 2.144-.448 2.976-1.344l1.44-8.064c-.352-.8-1.184-1.2-2.496-1.2-2.464 0-3.904 1.184-4.32 3.552l-.624 3.6zm-21.535-5.04c0-1.376-.672-2.064-2.016-2.064-1.312 0-2.4.496-3.264 1.488l-2.688 15.312h-8.16l4.08-23.088h7.584l-.528 2.832c1.888-2.336 4.272-3.504 7.152-3.504s4.752.704 5.616 2.112c.544.896.816 1.92.816 3.072 0 1.152-.08 2.224-.24 3.216l-1.296 7.392a3.232 3.232 0 00-.048.528c0 .864.48 1.296 1.44 1.296.736 0 1.392-.16 1.968-.48l-.24 5.424c-1.504 1.248-3.216 1.872-5.136 1.872-4.352 0-6.528-1.824-6.528-5.472 0-.64.064-1.328.192-2.064l1.152-6.384a9.244 9.244 0 00.144-1.488zm-21.819 7.344c0 .832.416 1.248 1.248 1.248.864 0 1.584-.16 2.16-.48l-.24 5.424c-1.536 1.248-3.264 1.872-5.184 1.872-3.52 0-5.472-1.28-5.856-3.84-1.6 2.56-3.952 3.84-7.056 3.84-5.248 0-7.872-2.256-7.872-6.768 0-.768.08-1.616.24-2.544l1.008-5.616c.512-2.88 1.68-5.168 3.504-6.864 1.856-1.728 4.256-2.592 7.2-2.592 2.976 0 4.992.688 6.048 2.064l.24-1.44h7.296l-2.688 15.12a3.498 3.498 0 00-.048.576zm-14.208-2.304c-.064.288-.096.688-.096 1.2s.24 1.024.72 1.536c.48.48 1.28.72 2.4.72 1.152 0 2.144-.448 2.976-1.344l1.44-8.064c-.352-.8-1.184-1.2-2.496-1.2-2.464 0-3.904 1.184-4.32 3.552l-.624 3.6zm-22.179-8.4c0 1.056-.32 2.032-.96 2.928h-7.872c.256-.192.384-.512.384-.96 0-.448-.256-.8-.768-1.056-.512-.288-1.168-.432-1.968-.432-2.4 0-3.6.736-3.6 2.208 0 .576.448.992 1.344 1.248.896.256 1.984.464 3.264.624 1.28.16 2.56.4 3.84.72 1.28.288 2.368.88 3.264 1.776.896.896 1.344 2.096 1.344 3.6 0 2.656-1.072 4.672-3.216 6.048-2.112 1.376-5.2 2.064-9.264 2.064-4.064 0-6.912-.656-8.544-1.968-1.28-1.024-1.92-2.432-1.92-4.224 0-.512.048-1.04.144-1.584l8.016-.096c-.064.448.192.848.768 1.2.608.32 1.488.48 2.64.48 1.152 0 1.984-.112 2.496-.336.512-.256.768-.72.768-1.392 0-.448-.448-.752-1.344-.912-.896-.192-2-.352-3.312-.48a33.827 33.827 0 01-3.888-.624 6.387 6.387 0 01-3.264-1.824c-.896-.928-1.344-2.144-1.344-3.648 0-2.912 1.12-5.152 3.36-6.72 2.272-1.568 5.536-2.352 9.792-2.352 6.56 0 9.84 1.904 9.84 5.712zm-30.4 10.704c0 .832.416 1.248 1.248 1.248.864 0 1.584-.16 2.16-.48l-.24 5.424c-1.536 1.248-3.264 1.872-5.184 1.872-2.912 0-4.8-.672-5.664-2.016a5.212 5.212 0 01-.816-2.832c0-1.024.064-1.92.192-2.688l5.232-29.568h8.16l-5.04 28.464a3.498 3.498 0 00-.048.576zm-15.291 0c0 .832.416 1.248 1.248 1.248.864 0 1.584-.16 2.16-.48l-.24 5.424c-1.536 1.248-3.264 1.872-5.184 1.872-3.52 0-5.472-1.28-5.856-3.84-1.6 2.56-3.952 3.84-7.056 3.84-5.248 0-7.872-2.256-7.872-6.768 0-.768.08-1.616.24-2.544l1.008-5.616c.512-2.88 1.68-5.168 3.504-6.864 1.856-1.728 4.256-2.592 7.2-2.592 2.976 0 4.992.688 6.048 2.064l.24-1.44h7.296l-2.688 15.12a3.498 3.498 0 00-.048.576zm-14.208-2.304c-.064.288-.096.688-.096 1.2s.24 1.024.72 1.536c.48.48 1.28.72 2.4.72 1.152 0 2.144-.448 2.976-1.344l1.44-8.064c-.352-.8-1.184-1.2-2.496-1.2-2.464 0-3.904 1.184-4.32 3.552l-.624 3.6zm-13.092 3.552c.736 0 1.392-.16 1.968-.48l-.24 5.424c-1.504 1.248-3.216 1.872-5.136 1.872-4.352 0-6.528-1.824-6.528-5.472 0-.64.064-1.328.192-2.064l1.008-5.904c.096-.576.144-1.152.144-1.728 0-1.536-.848-2.304-2.544-2.304-1.664 0-2.976.656-3.936 1.968l-2.592 14.832h-8.16l2.256-12.768c.096-.576.144-1.152.144-1.728 0-1.536-.864-2.304-2.592-2.304-1.376 0-2.56.528-3.552 1.584l-2.688 15.216h-8.16l4.08-23.088h7.584l-.528 2.88c1.92-2.368 4.352-3.552 7.296-3.552 4.16 0 6.528 1.376 7.104 4.128 1.92-2.752 4.48-4.128 7.68-4.128 3.232 0 5.328.72 6.288 2.16a5.9 5.9 0 01.96 3.264c0 1.184-.08 2.256-.24 3.216l-1.2 7.152a3.232 3.232 0 00-.048.528c0 .864.48 1.296 1.44 1.296zm-44.662 0c.736 0 1.391-.16 1.968-.48l-.24 5.424c-1.504 1.248-3.216 1.872-5.136 1.872-2.913 0-4.8-.672-5.665-2.016-.575-.896-.864-1.84-.864-2.832 0-1.024.064-1.92.192-2.688l2.88-16.224h8.16l-2.688 15.12a3.232 3.232 0 00-.047.528c0 .864.48 1.296 1.44 1.296zM68.966 7.904c0-2.048.448-3.536 1.344-4.464.927-.96 2.352-1.44 4.272-1.44 2.688 0 4.032 1.184 4.032 3.552 0 2.016-.465 3.488-1.392 4.416-.896.928-2.32 1.392-4.272 1.392-2.657 0-3.984-1.152-3.984-3.456zM51.51 24.08c0-1.376-.672-2.064-2.016-2.064-1.312 0-2.4.496-3.264 1.488l-2.688 15.312h-8.16l4.08-23.088h7.584l-.528 2.832c1.888-2.336 4.272-3.504 7.152-3.504s4.752.704 5.616 2.112c.544.896.816 1.92.816 3.072 0 1.152-.08 2.224-.24 3.216l-1.296 7.392a3.232 3.232 0 00-.048.528c0 .864.48 1.296 1.44 1.296.736 0 1.392-.16 1.968-.48l-.24 5.424c-1.504 1.248-3.216 1.872-5.136 1.872-4.352 0-6.528-1.824-6.528-5.472 0-.64.064-1.328.192-2.064l1.152-6.384a9.244 9.244 0 00.144-1.488zM22.248 38.816l.288-7.536H14.52l-2.352 7.536H3l12.336-34.56h15.84l.192 34.56h-9.12zm-1.968-26.16l-3.792 12.192h6.288l.528-12.192H20.28z" stroke="#0A484F" stroke-width="4" mask="url(#a)"/></svg>