<svg width="167" height="43" fill="none" xmlns="http://www.w3.org/2000/svg"><path d="M13.265 38.668c.536 0 .971.335.971.748s-.435.748-.97.748c-.537 0-.972-.335-.972-.748s.435-.748.971-.748zm3.885 0c.535 0 .97.335.97.748s-.435.748-.97.748c-.537 0-.972-.335-.972-.748s.435-.748.971-.748zm3.883 0c.072 0 .142.006.21.017v1.46a1.251 1.251 0 01-.21.019c-.536 0-.971-.335-.971-.748s.435-.748.971-.748zM9.381 35.676c.106 0 .208.014.303.038v1.42a1.235 1.235 0 01-.303.038c-.536 0-.97-.335-.97-.748s.434-.748.97-.748zm15.652.006v1.484a1.27 1.27 0 01-.116.006c-.536 0-.971-.335-.971-.748s.435-.748.971-.748c.04 0 .078.003.116.006zM5.497 32.685c.141 0 .276.023.397.065v1.365a1.216 1.216 0 01-.397.065c-.536 0-.97-.334-.97-.748 0-.413.434-.747.97-.747zm23.389.003v1.489a1.264 1.264 0 01-.085.003c-.536 0-.971-.334-.971-.748 0-.413.435-.747.971-.747.029 0 .057 0 .085.002zM5.497 29.693c.141 0 .276.023.397.065v1.365a1.216 1.216 0 01-.397.066c-.536 0-.97-.335-.97-.748s.434-.748.97-.748zm23.389.003v1.49a1.264 1.264 0 01-.085.003c-.536 0-.971-.335-.971-.748s.435-.748.971-.748c.029 0 .057.001.085.003zM5.497 26.701c.141 0 .276.024.397.066v1.364a1.216 1.216 0 01-.397.066c-.536 0-.97-.335-.97-.748s.434-.748.97-.748zm23.389.003v1.49a1.264 1.264 0 01-.085.003c-.536 0-.971-.335-.971-.748s.435-.748.971-.748c.029 0 .057.001.085.003zM5.497 23.71c.141 0 .276.023.397.065v1.365a1.213 1.213 0 01-.397.066c-.536 0-.97-.335-.97-.748s.434-.748.97-.748zm23.389.003v1.49a1.264 1.264 0 01-.085.003c-.536 0-.971-.335-.971-.748s.435-.748.971-.748c.029 0 .057 0 .085.003zM5.497 20.718c.141 0 .276.023.397.065v1.365a1.216 1.216 0 01-.397.066c-.536 0-.97-.335-.97-.748s.434-.748.97-.748zm11.653 0c.535 0 .97.335.97.748s-.435.748-.97.748c-.537 0-.972-.335-.972-.748s.435-.748.971-.748zm3.883 0c.536 0 .971.335.971.748s-.435.748-.971.748-.971-.335-.971-.748.435-.748.971-.748zm3.884 0c.536 0 .971.335.971.748s-.435.748-.971.748-.971-.335-.971-.748.435-.748.971-.748zm3.969.002v1.49a1.264 1.264 0 01-.085.004c-.536 0-.971-.335-.971-.748s.435-.748.971-.748c.029 0 .057.001.085.003zM5.497 17.726c.141 0 .276.024.397.066v1.364a1.216 1.216 0 01-.397.066c-.536 0-.97-.335-.97-.748s.434-.748.97-.748zm0-2.991c.141 0 .276.023.397.065v1.365a1.216 1.216 0 01-.397.066c-.536 0-.97-.335-.97-.748s.434-.748.97-.748zm0-2.992c.141 0 .276.024.397.065v1.365a1.216 1.216 0 01-.397.066c-.536 0-.97-.335-.97-.748s.434-.748.97-.748zm23.389.003v1.49a1.264 1.264 0 01-.085.003c-.536 0-.971-.335-.971-.748s.435-.748.971-.748c.029 0 .057.001.085.003zM5.497 8.751c.141 0 .276.024.397.066v1.364a1.216 1.216 0 01-.397.066c-.536 0-.97-.335-.97-.748s.434-.748.97-.748zm23.389.003v1.49a1.264 1.264 0 01-.085.003c-.536 0-.971-.335-.971-.748s.435-.748.971-.748c.029 0 .057.001.085.003zM9.381 5.76c.106 0 .208.013.303.037v1.42a1.234 1.234 0 01-.303.039c-.536 0-.97-.335-.97-.748s.434-.748.97-.748zm15.652.006v1.483a1.264 1.264 0 01-.116.007c-.536 0-.971-.335-.971-.748s.435-.748.971-.748c.04 0 .078.002.116.006zM13.265 2.768c.536 0 .971.335.971.748s-.435.748-.97.748c-.537 0-.972-.335-.972-.748s.435-.748.971-.748zm3.885 0c.535 0 .97.335.97.748s-.435.748-.97.748c-.537 0-.972-.335-.972-.748s.435-.748.971-.748zm3.883 0c.072 0 .142.006.21.018v1.46a1.252 1.252 0 01-.21.018c-.536 0-.971-.335-.971-.748s.435-.748.971-.748z" fill="#0A484F"/><path fill-rule="evenodd" clip-rule="evenodd" d="M25.127 2.92h3.79v2.967h3.853v10.451h-9.653v-5.935h-3.853V7.435h-5.696v2.968h-3.79v22.146h3.79v2.92h5.696v-2.92h3.853v-7.356H11.56V17.71h21.21v19.307h-3.853v2.967h-3.79V43H7.767v-3.016H3.916v-2.967H0V5.887h3.915V2.92h3.853V0h17.359v2.92zm-14.77 1.994H6.504v2.968H2.59v27.14h3.915v2.968h3.853v3.016h12.18V37.99h3.791v-2.968h3.853V19.705H14.148v1.451c.056.095.088.2.088.31 0 .11-.032.215-.088.31v1.423h11.559v.824a.637.637 0 01.181.435.637.637 0 01-.181.434v2.122a.637.637 0 01.181.435.637.637 0 01-.181.434v2.123a.637.637 0 01.181.435.637.637 0 01-.181.434v2.123a.637.637 0 01.181.434.637.637 0 01-.181.435v.676h-3.853v1.482c.095.115.15.252.15.4a.626.626 0 01-.15.398v.64H10.979v-2.92h-3.79V8.408h3.79V5.441h10.875v.667c.095.116.15.253.15.4a.626.626 0 01-.15.398v1.502h3.853v.657a.637.637 0 01.181.434.637.637 0 01-.181.435v2.122a.637.637 0 01.181.435.637.637 0 01-.181.434v1.419h4.474V7.882h-3.853V4.914h-3.79v-2.92h-12.18v2.92z" fill="#0A484F"/><path d="M71.525 38.668c.536 0 .97.335.97.748s-.434.748-.97.748c-.537 0-.972-.335-.972-.748s.435-.748.972-.748zm0-2.992c.536 0 .97.335.97.748s-.434.748-.97.748c-.537 0-.972-.335-.972-.748s.435-.748.972-.748zm0-2.991c.536 0 .97.334.97.747 0 .414-.434.748-.97.748-.537 0-.972-.334-.972-.748 0-.413.435-.747.972-.747zm-15.536-2.992c.536 0 .97.335.97.748s-.434.748-.97.748c-.537 0-.971-.335-.971-.748s.434-.748.97-.748zm3.884 0c.536 0 .97.335.97.748s-.434.748-.97.748c-.537 0-.971-.335-.971-.748s.434-.748.97-.748zm3.884 0c.536 0 .97.335.97.748s-.434.748-.97.748c-.537 0-.971-.335-.971-.748s.434-.748.97-.748zm3.883 0c.537 0 .972.335.972.748s-.435.748-.971.748c-.537 0-.972-.335-.972-.748s.435-.748.972-.748z" fill="#0A484F"/><path fill-rule="evenodd" clip-rule="evenodd" d="M62.744 20.232h3.853v8.376H55.722v-8.376h3.853v-8.856h3.169v8.856zm-4.433 6.382h5.696v-4.388h-5.696v4.388z" fill="#0A484F"/><path d="M67.64 26.701c.537 0 .972.335.972.748s-.435.748-.971.748c-.537 0-.972-.335-.972-.748s.435-.748.972-.748zm0-2.991c.537 0 .972.334.972.748 0 .413-.435.748-.971.748-.537 0-.972-.335-.972-.748s.435-.748.972-.748zm0-2.992c.537 0 .972.335.972.748s-.435.748-.971.748c-.537 0-.972-.335-.972-.748s.435-.748.972-.748zm-3.883-2.992c.536 0 .97.335.97.748s-.434.748-.97.748c-.537 0-.971-.335-.971-.748s.434-.748.97-.748zm0-2.991c.536 0 .97.335.97.748s-.434.747-.97.747c-.537 0-.971-.334-.971-.747s.434-.748.97-.748zm0-2.992c.536 0 .97.335.97.748s-.434.748-.97.748c-.537 0-.971-.335-.971-.748s.434-.748.97-.748zm-3.884-2.992c.536 0 .97.335.97.748s-.434.748-.97.748c-.537 0-.971-.335-.971-.748s.434-.748.97-.748zm0-2.991c.536 0 .97.335.97.748s-.434.748-.97.748c-.537 0-.971-.335-.971-.748s.434-.748.97-.748zm0-2.992c.536 0 .97.335.97.748s-.434.748-.97.748c-.537 0-.971-.335-.971-.748s.434-.748.97-.748z" fill="#0A484F"/><path fill-rule="evenodd" clip-rule="evenodd" d="M66.017 8.855h3.853v8.855h3.79v11.871h3.853V43H67.86v-8.951H54.52V43h-9.777V29.581h3.915v-11.87h3.853V8.854h3.791V0h9.715v8.855zm-7.125 1.995H55.1v1.34c.151-.263.492-.447.889-.447.536 0 .97.335.97.748s-.434.748-.97.748c-.397 0-.738-.184-.889-.447v2.39c.151-.264.492-.447.889-.447.536 0 .97.335.97.748s-.434.747-.97.747c-.397 0-.738-.183-.889-.447v2.39c.151-.263.492-.447.889-.447.536 0 .97.335.97.748s-.434.748-.97.748c-.397 0-.738-.184-.889-.447v.93h-3.852v1.41c.163-.236.485-.397.857-.397.536 0 .97.335.97.748s-.434.748-.97.748c-.372 0-.694-.161-.857-.397v2.289c.163-.236.485-.396.857-.396.536 0 .97.334.97.748 0 .413-.434.748-.97.748-.372 0-.694-.161-.857-.397v2.289c.163-.236.485-.397.857-.397.536 0 .97.335.97.748s-.434.748-.97.748c-.372 0-.694-.16-.857-.397v2.29c.163-.236.485-.397.857-.397.536 0 .97.335.97.748s-.434.748-.97.748c-.372 0-.694-.161-.857-.397v.784h-3.915v1.555c.15-.263.49-.446.888-.446.536 0 .97.334.97.747 0 .414-.434.748-.97.748-.397 0-.738-.184-.888-.447v2.39c.15-.263.49-.447.888-.447.536 0 .97.335.97.748s-.434.748-.97.748c-.397 0-.738-.184-.888-.447v2.39c.15-.264.49-.447.888-.447.536 0 .97.335.97.748s-.434.748-.97.748c-.397 0-.738-.184-.888-.447v1.289h4.599v-8.952H70.45v8.952h4.474v-9.43h-3.853V19.705h-3.79V10.85h-3.853V1.994h-4.536v8.856z" fill="#0A484F"/><path d="M94.828 38.668c.205 0 .395.049.552.132v1.23a1.176 1.176 0 01-.552.134c-.536 0-.97-.335-.97-.748s.434-.748.97-.748zm23.304 0c.083 0 .164.009.241.024v1.447a1.246 1.246 0 01-.241.025c-.536 0-.971-.335-.971-.748s.435-.748.971-.748zm-23.304-2.992c.205 0 .395.05.552.133v1.23a1.176 1.176 0 01-.552.133c-.536 0-.97-.335-.97-.748s.434-.748.97-.748zm11.652 0c.141 0 .275.024.396.066v1.364a1.214 1.214 0 01-.396.066c-.536 0-.971-.335-.971-.748s.435-.748.971-.748zm11.652 0c.083 0 .164.009.241.024v1.448a1.246 1.246 0 01-.241.024c-.536 0-.971-.335-.971-.748s.435-.748.971-.748zm-23.304-2.991c.205 0 .395.048.552.132v1.23a1.176 1.176 0 01-.552.133c-.536 0-.97-.334-.97-.748 0-.413.434-.747.97-.747zm11.652 0c.141 0 .275.023.396.065v1.365a1.214 1.214 0 01-.396.065c-.536 0-.971-.334-.971-.748 0-.413.435-.747.971-.747zm11.652 0c.083 0 .164.008.241.023v1.448a1.254 1.254 0 01-.241.024c-.536 0-.971-.334-.971-.748 0-.413.435-.747.971-.747zm-23.304-2.992c.205 0 .395.049.552.132v1.23a1.176 1.176 0 01-.552.134c-.536 0-.97-.335-.97-.748s.434-.748.97-.748zm11.652 0c.141 0 .275.023.396.065v1.365a1.214 1.214 0 01-.396.066c-.536 0-.971-.335-.971-.748s.435-.748.971-.748zm11.652 0c.083 0 .164.009.241.024v1.447a1.246 1.246 0 01-.241.025c-.536 0-.971-.335-.971-.748s.435-.748.971-.748zm-23.304-2.992c.205 0 .395.05.552.133v1.23a1.176 1.176 0 01-.552.133c-.536 0-.97-.335-.97-.748s.434-.748.97-.748zm7.768 0a1.2 1.2 0 01.427.077v1.342a1.203 1.203 0 01-.427.077c-.536 0-.971-.335-.971-.748s.435-.748.971-.748zm7.768 0c.129 0 .253.02.365.055v1.386a1.216 1.216 0 01-.365.055c-.536 0-.971-.335-.971-.748s.435-.748.971-.748zm7.768 0c.083 0 .164.009.241.024v1.448a1.246 1.246 0 01-.241.024c-.536 0-.971-.335-.971-.748s.435-.748.971-.748zM94.828 23.71c.205 0 .395.049.552.132v1.23a1.175 1.175 0 01-.552.134c-.536 0-.97-.335-.97-.748s.434-.748.97-.748zm7.768 0a1.2 1.2 0 01.427.077v1.341a1.203 1.203 0 01-.427.078c-.536 0-.971-.335-.971-.748s.435-.748.971-.748zm7.768 0c.129 0 .253.02.365.055v1.385a1.22 1.22 0 01-.365.056c-.536 0-.971-.335-.971-.748s.435-.748.971-.748zm7.768 0c.083 0 .164.008.241.023v1.448a1.246 1.246 0 01-.241.024c-.536 0-.971-.334-.971-.747s.435-.748.971-.748zm-23.304-2.992c.205 0 .395.049.552.133v1.23a1.176 1.176 0 01-.552.133c-.536 0-.97-.335-.97-.748s.434-.748.97-.748zm7.768 0a1.2 1.2 0 01.427.077v1.341a1.203 1.203 0 01-.427.078c-.536 0-.971-.335-.971-.748s.435-.748.971-.748zm7.768 0c.129 0 .253.02.365.055v1.385a1.216 1.216 0 01-.365.056c-.536 0-.971-.335-.971-.748s.435-.748.971-.748zm7.768 0c.083 0 .164.009.241.024v1.447a1.246 1.246 0 01-.241.025c-.536 0-.971-.335-.971-.748s.435-.748.971-.748zm-23.304-2.992c.205 0 .395.05.552.133v1.23a1.176 1.176 0 01-.552.133c-.536 0-.97-.335-.97-.748s.434-.748.97-.748zm7.768 0a1.2 1.2 0 01.427.077v1.342a1.203 1.203 0 01-.427.077c-.536 0-.971-.335-.971-.748s.435-.748.971-.748zm7.768 0c.129 0 .253.02.365.055v1.386a1.216 1.216 0 01-.365.055c-.536 0-.971-.335-.971-.748s.435-.748.971-.748zm7.768 0c.083 0 .164.01.241.024v1.448a1.246 1.246 0 01-.241.024c-.536 0-.971-.335-.971-.748s.435-.748.971-.748zm-23.304-2.991c.537 0 .971.335.971.748s-.434.747-.97.747c-.537 0-.972-.334-.972-.747s.435-.748.971-.748zm3.884 0c.166 0 .322.032.459.088v1.319a1.2 1.2 0 01-.459.088c-.536 0-.97-.334-.97-.747s.434-.748.97-.748zm15.536 0c.536 0 .971.335.971.748s-.435.747-.971.747-.971-.334-.971-.747.435-.748.971-.748zm3.884 0c.083 0 .164.008.241.024v1.447a1.246 1.246 0 01-.241.024c-.536 0-.971-.334-.971-.747s.435-.748.971-.748zm-23.304-2.992c.537 0 .971.335.971.748s-.434.748-.97.748c-.537 0-.972-.335-.972-.748s.435-.748.971-.748zm3.884 0c.166 0 .322.032.459.088v1.32a1.203 1.203 0 01-.459.088c-.536 0-.97-.335-.97-.748s.434-.748.97-.748zm15.536 0c.536 0 .971.335.971.748s-.435.748-.971.748-.971-.335-.971-.748.435-.748.971-.748zm3.884 0c.083 0 .164.009.241.024v1.448a1.254 1.254 0 01-.241.024c-.536 0-.971-.335-.971-.748s.435-.748.971-.748zM94.828 8.751c.537 0 .971.335.971.748s-.434.748-.97.748c-.537 0-.972-.335-.972-.748s.435-.748.971-.748zm3.884 0c.166 0 .322.032.459.089v1.319a1.2 1.2 0 01-.459.088c-.536 0-.97-.335-.97-.748s.434-.748.97-.748zm15.536 0c.536 0 .971.335.971.748s-.435.748-.971.748-.971-.335-.971-.748.435-.748.971-.748zm3.884 0c.083 0 .164.01.241.024v1.448a1.246 1.246 0 01-.241.024c-.536 0-.971-.335-.971-.748s.435-.748.971-.748zM94.828 5.76c.205 0 .395.049.552.132v1.23a1.176 1.176 0 01-.552.134c-.536 0-.97-.335-.97-.748s.434-.748.97-.748zm23.304 0c.083 0 .164.008.241.024V7.23a1.248 1.248 0 01-.241.025c-.536 0-.971-.335-.971-.748s.435-.748.971-.748zM94.828 2.768c.205 0 .395.05.552.133v1.23a1.176 1.176 0 01-.552.133c-.536 0-.97-.335-.97-.748s.434-.748.97-.748zm23.304 0c.083 0 .164.009.241.024V4.24a1.247 1.247 0 01-.241.024c-.536 0-.971-.335-.971-.748s.435-.748.971-.748z" fill="#0A484F"/><path fill-rule="evenodd" clip-rule="evenodd" d="M99.263 5.887h3.791v8.904h5.697V5.887h3.853V0h9.653v43h-9.653V31.129h-1.844v8.855h-9.715v-8.855h-1.782V43h-9.776V0h9.776v5.887zm-7.187 35.119h4.598V17.264h3.17v11.87h3.79v8.856h4.537v-8.856h3.853v-11.87h3.169v1.04a.57.57 0 010 .34v2.652a.57.57 0 010 .34v2.652a.57.57 0 010 .339v2.652a.57.57 0 010 .34v2.652a.57.57 0 010 .34v2.652a.57.57 0 010 .339v2.652a.57.57 0 010 .34v2.652a.57.57 0 010 .34v1.42h4.474V1.994h-4.474v1.352a.57.57 0 010 .34v2.652a.57.57 0 010 .34v1.204h-3.853v8.903h-3.853v11.823h-3.169V16.785h-3.853V7.882h-3.79V1.994h-4.6v39.012z" fill="#0A484F"/><path d="M141.436 38.668c.536 0 .971.335.971.748s-.435.748-.971.748c-.537 0-.971-.335-.971-.748s.434-.748.971-.748zm3.884 0c.536 0 .971.335.971.748s-.435.748-.971.748c-.537 0-.971-.335-.971-.748s.434-.748.971-.748zm3.884 0c.536 0 .971.335.971.748s-.435.748-.971.748c-.537 0-.971-.335-.971-.748s.434-.748.971-.748zm3.884 0c.536 0 .971.335.971.748s-.435.748-.971.748c-.537 0-.971-.335-.971-.748s.434-.748.971-.748zm3.883 0c.537 0 .972.335.972.748s-.435.748-.972.748c-.536 0-.97-.335-.97-.748s.434-.748.97-.748zm3.884 0c.537 0 .971.335.971.748s-.434.748-.971.748c-.536 0-.971-.335-.971-.748s.435-.748.971-.748zm-19.419-17.95c.536 0 .971.335.971.748s-.435.748-.971.748c-.537 0-.971-.335-.971-.748s.434-.748.971-.748zm3.884 0c.536 0 .971.335.971.748s-.435.748-.971.748c-.537 0-.971-.335-.971-.748s.434-.748.971-.748zm3.884 0c.536 0 .971.335.971.748s-.435.748-.971.748c-.537 0-.971-.335-.971-.748s.434-.748.971-.748zm3.884 0c.536 0 .971.335.971.748s-.435.748-.971.748c-.537 0-.971-.335-.971-.748s.434-.748.971-.748zm3.883 0c.537 0 .972.335.972.748s-.435.748-.972.748c-.536 0-.97-.335-.97-.748s.434-.748.97-.748zm-15.535-17.95c.536 0 .971.335.971.748s-.435.748-.971.748c-.537 0-.971-.335-.971-.748s.434-.748.971-.748zm3.884 0c.536 0 .971.335.971.748s-.435.748-.971.748c-.537 0-.971-.335-.971-.748s.434-.748.971-.748zm3.884 0c.536 0 .971.335.971.748s-.435.748-.971.748c-.537 0-.971-.335-.971-.748s.434-.748.971-.748zm3.884 0c.536 0 .971.335.971.748s-.435.748-.971.748c-.537 0-.971-.335-.971-.748s.434-.748.971-.748zm3.883 0c.537 0 .972.335.972.748s-.435.748-.972.748c-.536 0-.97-.335-.97-.748s.434-.748.97-.748zm3.884 0c.537 0 .971.335.971.748s-.434.748-.971.748c-.536 0-.971-.335-.971-.748s.435-.748.971-.748z" fill="#0A484F"/><path fill-rule="evenodd" clip-rule="evenodd" d="M167 7.435h-22.993V17.71h19.14v7.483h-19.14V35.47H167V43h-32.77V0H167v7.435zm-30.181-4.409c.178-.158.44-.258.733-.258.536 0 .971.335.971.748s-.435.748-.971.748c-.293 0-.555-.1-.733-.259v2.013c.178-.158.44-.258.733-.258.536 0 .971.335.971.748s-.435.748-.971.748c-.293 0-.555-.1-.733-.259V9.01c.178-.157.44-.258.733-.258.536 0 .971.335.971.748s-.435.748-.971.748c-.293 0-.555-.1-.733-.258V12c.178-.158.44-.258.733-.258.536 0 .971.335.971.748s-.435.748-.971.748c-.293 0-.555-.1-.733-.259v2.013c.178-.158.44-.258.733-.258.536 0 .971.335.971.748s-.435.747-.971.747c-.293 0-.555-.1-.733-.258v2.012c.178-.157.44-.258.733-.258.536 0 .971.335.971.748s-.435.748-.971.748c-.293 0-.555-.1-.733-.258v2.012c.178-.158.44-.258.733-.258.536 0 .971.335.971.748s-.435.748-.971.748c-.293 0-.555-.1-.733-.259v2.013c.178-.158.44-.258.733-.258.536 0 .971.334.971.748 0 .413-.435.748-.971.748-.293 0-.555-.101-.733-.26v2.013c.178-.157.44-.258.733-.258.536 0 .971.335.971.748s-.435.748-.971.748c-.293 0-.555-.1-.733-.258v2.012c.178-.158.44-.258.733-.258.536 0 .971.335.971.748s-.435.748-.971.748c-.293 0-.555-.1-.733-.259v2.013c.178-.158.44-.258.733-.258.536 0 .971.334.971.747 0 .414-.435.748-.971.748-.293 0-.555-.1-.733-.258v2.012c.178-.158.44-.258.733-.258.536 0 .971.335.971.748s-.435.748-.971.748c-.293 0-.555-.1-.733-.258v2.012c.178-.158.44-.258.733-.258.536 0 .971.335.971.748s-.435.748-.971.748c-.293 0-.555-.1-.733-.259v1.1h27.592v-3.542h-22.994V23.2h19.141v-3.494h-19.141V5.44h22.994V1.994h-27.592v1.032z" fill="#0A484F"/></svg>