<svg width="3145" height="3332" fill="none" xmlns="http://www.w3.org/2000/svg"><path fill-rule="evenodd" clip-rule="evenodd" d="M3041.08 2843.8c-245.69 240.35-702.52-93.44-1035.55 3.8-247.65 72.3-348.63 565.37-593.31 471.77-313.07-119.77-103.31-516.84-402.23-805.49-147.832-142.77-373.296 16.48-602.781-149.65C177.724 2198.09 100.007 1596.94 43.2 1348.17-68.14 860.495 53.703 508.151 229.443 265.399 405.182 22.647 840.774-107.547 1145.61 113.137c304.83 220.684 264.53 546.792 482 713.165 144.82 110.779 365.56-43.043 535.1 23.164 198.35 77.461 374.14 213.054 503.18 382.294 230.49 302.34 681.98 1311.92 375.19 1612.04z" fill="#F2FFAE"/></svg>